<?xml version="1.0" encoding="UTF-8" standalone="no"?>
<!DOCTYPE svg PUBLIC "-//W3C//DTD SVG 1.1//EN"
 "http://www.w3.org/Graphics/SVG/1.1/DTD/svg11.dtd">
<!-- Generated by graphviz version 14.0.0 (20250921.2048)
 -->
<!-- Title: UKNF_Database_Schema_V4 Pages: 1 -->
<svg width="1052pt" height="1613pt"
 viewBox="0.00 0.00 1052.00 1613.00" xmlns="http://www.w3.org/2000/svg" xmlns:xlink="http://www.w3.org/1999/xlink">
<g id="graph0" class="graph" transform="scale(1 1) rotate(0) translate(28.8 1583.8)">
<title>UKNF_Database_Schema_V4</title>
<polygon fill="white" stroke="none" points="-28.8,28.8 -28.8,-1583.8 1023.15,-1583.8 1023.15,28.8 -28.8,28.8"/>
<g id="clust1" class="cluster">
<title>cluster_identity</title>
<path fill="#fff3e0" stroke="#fff3e0" d="M20,-1118C20,-1118 728.95,-1118 728.95,-1118 734.95,-1118 740.95,-1124 740.95,-1130 740.95,-1130 740.95,-1535 740.95,-1535 740.95,-1541 734.95,-1547 728.95,-1547 728.95,-1547 20,-1547 20,-1547 14,-1547 8,-1541 8,-1535 8,-1535 8,-1130 8,-1130 8,-1124 14,-1118 20,-1118"/>
<text xml:space="preserve" text-anchor="middle" x="374.48" y="-1530.65" font-family="Arial" font-size="13.00" fill="#e65100">Identity &amp; Access</text>
</g>
<g id="clust2" class="cluster">
<title>cluster_communication</title>
<path fill="#e3f2fd" stroke="#e3f2fd" d="M578.55,-459C578.55,-459 974.35,-459 974.35,-459 980.35,-459 986.35,-465 986.35,-471 986.35,-471 986.35,-988 986.35,-988 986.35,-994 980.35,-1000 974.35,-1000 974.35,-1000 578.55,-1000 578.55,-1000 572.55,-1000 566.55,-994 566.55,-988 566.55,-988 566.55,-471 566.55,-471 566.55,-465 572.55,-459 578.55,-459"/>
<text xml:space="preserve" text-anchor="middle" x="776.45" y="-983.65" font-family="Arial" font-size="13.00" fill="#01579b">Communication</text>
</g>
<g id="clust3" class="cluster">
<title>cluster_administration</title>
<path fill="#f3e5f5" stroke="#f3e5f5" d="M20,-8C20,-8 974.35,-8 974.35,-8 980.35,-8 986.35,-14 986.35,-20 986.35,-20 986.35,-439 986.35,-439 986.35,-445 980.35,-451 974.35,-451 974.35,-451 20,-451 20,-451 14,-451 8,-445 8,-439 8,-439 8,-20 8,-20 8,-14 14,-8 20,-8"/>
<text xml:space="preserve" text-anchor="middle" x="497.18" y="-434.65" font-family="Arial" font-size="13.00" fill="#4a148c">Administration</text>
</g>
<!-- password_policies -->
<g id="node1" class="node">
<title>password_policies</title>
<path fill="#ffe0b2" stroke="black" d="M162.4,-1211C162.4,-1211 28,-1211 28,-1211 22,-1211 16,-1205 16,-1199 16,-1199 16,-1169 16,-1169 16,-1163 22,-1157 28,-1157 28,-1157 162.4,-1157 162.4,-1157 168.4,-1157 174.4,-1163 174.4,-1169 174.4,-1169 174.4,-1199 174.4,-1199 174.4,-1205 168.4,-1211 162.4,-1211"/>
<text xml:space="preserve" text-anchor="middle" x="95.2" y="-1180.3" font-family="Arial Bold" font-size="11.00">password_policies</text>
</g>
<!-- users -->
<g id="node4" class="node">
<title>users</title>
<path fill="#ffeb3b" stroke="black" d="M445.05,-1180C445.05,-1180 310.65,-1180 310.65,-1180 304.65,-1180 298.65,-1174 298.65,-1168 298.65,-1168 298.65,-1138 298.65,-1138 298.65,-1132 304.65,-1126 310.65,-1126 310.65,-1126 445.05,-1126 445.05,-1126 451.05,-1126 457.05,-1132 457.05,-1138 457.05,-1138 457.05,-1168 457.05,-1168 457.05,-1174 451.05,-1180 445.05,-1180"/>
<text xml:space="preserve" text-anchor="middle" x="377.85" y="-1156.05" font-family="Arial Bold" font-size="11.00">users</text>
<text xml:space="preserve" text-anchor="middle" x="377.85" y="-1142.55" font-family="Arial Bold" font-size="11.00">(Core)</text>
</g>
<!-- password_policies&#45;&gt;users -->
<g id="edge1" class="edge">
<title>password_policies&#45;&gt;users</title>
<path fill="none" stroke="#9e9e9e" stroke-width="1.3" stroke-dasharray="1,5" d="M174.69,-1168.5C174.69,-1168.5 289.5,-1168.5 289.5,-1168.5"/>
<polygon fill="#9e9e9e" stroke="#9e9e9e" stroke-width="1.3" points="289.5,-1170.95 296.5,-1168.5 289.5,-1166.05 289.5,-1170.95"/>
<text xml:space="preserve" text-anchor="middle" x="236.53" y="-1186.15" font-family="Arial" font-size="8.00">enforces</text>
</g>
<!-- roles -->
<g id="node2" class="node">
<title>roles</title>
<path fill="#ff9800" stroke="black" d="M445.05,-1404C445.05,-1404 310.65,-1404 310.65,-1404 304.65,-1404 298.65,-1398 298.65,-1392 298.65,-1392 298.65,-1362 298.65,-1362 298.65,-1356 304.65,-1350 310.65,-1350 310.65,-1350 445.05,-1350 445.05,-1350 451.05,-1350 457.05,-1356 457.05,-1362 457.05,-1362 457.05,-1392 457.05,-1392 457.05,-1398 451.05,-1404 445.05,-1404"/>
<text xml:space="preserve" text-anchor="middle" x="377.85" y="-1373.3" font-family="Arial Bold" font-size="11.00">roles</text>
</g>
<!-- user_roles -->
<g id="node5" class="node">
<title>user_roles</title>
<path fill="#ffe0b2" stroke="black" d="M720.95,-1404C720.95,-1404 586.55,-1404 586.55,-1404 580.55,-1404 574.55,-1398 574.55,-1392 574.55,-1392 574.55,-1362 574.55,-1362 574.55,-1356 580.55,-1350 586.55,-1350 586.55,-1350 720.95,-1350 720.95,-1350 726.95,-1350 732.95,-1356 732.95,-1362 732.95,-1362 732.95,-1392 732.95,-1392 732.95,-1398 726.95,-1404 720.95,-1404"/>
<text xml:space="preserve" text-anchor="middle" x="653.75" y="-1373.3" font-family="Arial Bold" font-size="11.00">user_roles</text>
</g>
<!-- roles&#45;&gt;user_roles -->
<g id="edge2" class="edge">
<title>roles&#45;&gt;user_roles</title>
<path fill="none" stroke="#1976d2" stroke-width="2" d="M457.28,-1382.4C457.28,-1382.4 564.37,-1382.4 564.37,-1382.4"/>
<polygon fill="#1976d2" stroke="#1976d2" stroke-width="2" points="564.37,-1384.85 571.37,-1382.4 564.37,-1379.95 564.37,-1384.85"/>
</g>
<!-- role_permissions -->
<g id="node6" class="node">
<title>role_permissions</title>
<path fill="#ffe0b2" stroke="black" d="M720.95,-1516C720.95,-1516 586.55,-1516 586.55,-1516 580.55,-1516 574.55,-1510 574.55,-1504 574.55,-1504 574.55,-1474 574.55,-1474 574.55,-1468 580.55,-1462 586.55,-1462 586.55,-1462 720.95,-1462 720.95,-1462 726.95,-1462 732.95,-1468 732.95,-1474 732.95,-1474 732.95,-1504 732.95,-1504 732.95,-1510 726.95,-1516 720.95,-1516"/>
<text xml:space="preserve" text-anchor="middle" x="653.75" y="-1485.3" font-family="Arial Bold" font-size="11.00">role_permissions</text>
</g>
<!-- roles&#45;&gt;role_permissions -->
<g id="edge13" class="edge">
<title>roles&#45;&gt;role_permissions</title>
<path fill="none" stroke="#1976d2" stroke-width="2" d="M457.21,-1393.2C499.27,-1393.2 542.35,-1393.2 542.35,-1393.2 542.35,-1393.2 542.35,-1480 542.35,-1480 542.35,-1480 564.25,-1480 564.25,-1480"/>
<polygon fill="#1976d2" stroke="#1976d2" stroke-width="2" points="564.25,-1482.45 571.25,-1480 564.25,-1477.55 564.25,-1482.45"/>
</g>
<!-- file_library_permissions -->
<g id="node22" class="node">
<title>file_library_permissions</title>
<path fill="#e1bee7" stroke="black" d="M966.35,-77C966.35,-77 831.95,-77 831.95,-77 825.95,-77 819.95,-71 819.95,-65 819.95,-65 819.95,-35 819.95,-35 819.95,-29 825.95,-23 831.95,-23 831.95,-23 966.35,-23 966.35,-23 972.35,-23 978.35,-29 978.35,-35 978.35,-35 978.35,-65 978.35,-65 978.35,-71 972.35,-77 966.35,-77"/>
<text xml:space="preserve" text-anchor="middle" x="899.15" y="-53.05" font-family="Arial Bold" font-size="11.00">file_library</text>
<text xml:space="preserve" text-anchor="middle" x="899.15" y="-39.55" font-family="Arial Bold" font-size="11.00">permissions</text>
</g>
<!-- roles&#45;&gt;file_library_permissions -->
<g id="edge35" class="edge">
<title>roles&#45;&gt;file_library_permissions</title>
<path fill="none" stroke="#ff6f00" stroke-width="1.3" stroke-dasharray="5,2" d="M457.53,-1360.8C469.72,-1360.8 478.35,-1360.8 478.35,-1360.8 478.35,-1360.8 478.35,-27.67 478.35,-27.67 478.35,-27.67 810.54,-27.67 810.54,-27.67"/>
<polygon fill="#ff6f00" stroke="#ff6f00" stroke-width="1.3" points="810.54,-30.12 817.54,-27.67 810.54,-25.22 810.54,-30.12"/>
</g>
<!-- permissions -->
<g id="node3" class="node">
<title>permissions</title>
<path fill="#ff9800" stroke="black" d="M445.05,-1516C445.05,-1516 310.65,-1516 310.65,-1516 304.65,-1516 298.65,-1510 298.65,-1504 298.65,-1504 298.65,-1474 298.65,-1474 298.65,-1468 304.65,-1462 310.65,-1462 310.65,-1462 445.05,-1462 445.05,-1462 451.05,-1462 457.05,-1468 457.05,-1474 457.05,-1474 457.05,-1504 457.05,-1504 457.05,-1510 451.05,-1516 445.05,-1516"/>
<text xml:space="preserve" text-anchor="middle" x="377.85" y="-1485.3" font-family="Arial Bold" font-size="11.00">permissions</text>
</g>
<!-- permissions&#45;&gt;role_permissions -->
<g id="edge3" class="edge">
<title>permissions&#45;&gt;role_permissions</title>
<path fill="none" stroke="#1976d2" stroke-width="2" d="M457.28,-1498C457.28,-1498 564.37,-1498 564.37,-1498"/>
<polygon fill="#1976d2" stroke="#1976d2" stroke-width="2" points="564.37,-1500.45 571.37,-1498 564.37,-1495.55 564.37,-1500.45"/>
</g>
<!-- users&#45;&gt;user_roles -->
<g id="edge5" class="edge">
<title>users&#45;&gt;user_roles</title>
<path fill="none" stroke="#1976d2" stroke-width="2" d="M457.38,-1173.25C503.82,-1173.25 553.35,-1173.25 553.35,-1173.25 553.35,-1173.25 553.35,-1371.6 553.35,-1371.6 553.35,-1371.6 564.13,-1371.6 564.13,-1371.6"/>
<polygon fill="#1976d2" stroke="#1976d2" stroke-width="2" points="564.13,-1374.05 571.13,-1371.6 564.13,-1369.15 564.13,-1374.05"/>
</g>
<!-- refresh_tokens -->
<g id="node7" class="node">
<title>refresh_tokens</title>
<path fill="#ffe0b2" stroke="black" d="M720.95,-1180C720.95,-1180 586.55,-1180 586.55,-1180 580.55,-1180 574.55,-1174 574.55,-1168 574.55,-1168 574.55,-1138 574.55,-1138 574.55,-1132 580.55,-1126 586.55,-1126 586.55,-1126 720.95,-1126 720.95,-1126 726.95,-1126 732.95,-1132 732.95,-1138 732.95,-1138 732.95,-1168 732.95,-1168 732.95,-1174 726.95,-1180 720.95,-1180"/>
<text xml:space="preserve" text-anchor="middle" x="653.75" y="-1149.3" font-family="Arial Bold" font-size="11.00">refresh_tokens</text>
</g>
<!-- users&#45;&gt;refresh_tokens -->
<g id="edge6" class="edge">
<title>users&#45;&gt;refresh_tokens</title>
<path fill="none" stroke="#1976d2" stroke-width="1.3" d="M457.28,-1166.5C457.28,-1166.5 565.43,-1166.5 565.43,-1166.5"/>
<polygon fill="#1976d2" stroke="#1976d2" stroke-width="1.3" points="565.43,-1168.95 572.43,-1166.5 565.43,-1164.05 565.43,-1168.95"/>
</g>
<!-- password_histories -->
<g id="node8" class="node">
<title>password_histories</title>
<path fill="#ffe0b2" stroke="black" d="M720.95,-1292C720.95,-1292 586.55,-1292 586.55,-1292 580.55,-1292 574.55,-1286 574.55,-1280 574.55,-1280 574.55,-1250 574.55,-1250 574.55,-1244 580.55,-1238 586.55,-1238 586.55,-1238 720.95,-1238 720.95,-1238 726.95,-1238 732.95,-1244 732.95,-1250 732.95,-1250 732.95,-1280 732.95,-1280 732.95,-1286 726.95,-1292 720.95,-1292"/>
<text xml:space="preserve" text-anchor="middle" x="653.75" y="-1261.3" font-family="Arial Bold" font-size="11.00">password_histories</text>
</g>
<!-- users&#45;&gt;password_histories -->
<g id="edge7" class="edge">
<title>users&#45;&gt;password_histories</title>
<path fill="none" stroke="#1976d2" stroke-width="1.3" d="M377.35,-1180.4C377.35,-1213.56 377.35,-1265 377.35,-1265 377.35,-1265 565.21,-1265 565.21,-1265"/>
<polygon fill="#1976d2" stroke="#1976d2" stroke-width="1.3" points="565.21,-1267.45 572.21,-1265 565.21,-1262.55 565.21,-1267.45"/>
</g>
<!-- messages -->
<g id="node9" class="node">
<title>messages</title>
<path fill="#81d4fa" stroke="black" d="M720.95,-922C720.95,-922 586.55,-922 586.55,-922 580.55,-922 574.55,-916 574.55,-910 574.55,-910 574.55,-880 574.55,-880 574.55,-874 580.55,-868 586.55,-868 586.55,-868 720.95,-868 720.95,-868 726.95,-868 732.95,-874 732.95,-880 732.95,-880 732.95,-910 732.95,-910 732.95,-916 726.95,-922 720.95,-922"/>
<text xml:space="preserve" text-anchor="middle" x="653.75" y="-891.3" font-family="Arial Bold" font-size="11.00">messages</text>
</g>
<!-- users&#45;&gt;messages -->
<g id="edge8" class="edge">
<title>users&#45;&gt;messages</title>
<path fill="none" stroke="#0288d1" stroke-width="2" d="M437.35,-1125.88C437.35,-1061.34 437.35,-904 437.35,-904 437.35,-904 564.07,-904 564.07,-904"/>
<polygon fill="#0288d1" stroke="#0288d1" stroke-width="2" points="564.07,-906.45 571.07,-904 564.07,-901.55 564.07,-906.45"/>
<text xml:space="preserve" text-anchor="middle" x="515.8" y="-921.15" font-family="Arial" font-size="8.00">sender</text>
</g>
<!-- announcements -->
<g id="node11" class="node">
<title>announcements</title>
<path fill="#81d4fa" stroke="black" d="M720.95,-745C720.95,-745 586.55,-745 586.55,-745 580.55,-745 574.55,-739 574.55,-733 574.55,-733 574.55,-703 574.55,-703 574.55,-697 580.55,-691 586.55,-691 586.55,-691 720.95,-691 720.95,-691 726.95,-691 732.95,-697 732.95,-703 732.95,-703 732.95,-733 732.95,-733 732.95,-739 726.95,-745 720.95,-745"/>
<text xml:space="preserve" text-anchor="middle" x="653.75" y="-714.3" font-family="Arial Bold" font-size="11.00">announcements</text>
</g>
<!-- users&#45;&gt;announcements -->
<g id="edge9" class="edge">
<title>users&#45;&gt;announcements</title>
<path fill="none" stroke="#0288d1" stroke-width="2" d="M377.35,-1125.79C377.35,-1030.56 377.35,-718 377.35,-718 377.35,-718 564.15,-718 564.15,-718"/>
<polygon fill="#0288d1" stroke="#0288d1" stroke-width="2" points="564.15,-720.45 571.15,-718 564.15,-715.55 564.15,-720.45"/>
</g>
<!-- announcement_recipients -->
<g id="node12" class="node">
<title>announcement_recipients</title>
<path fill="#b3e5fc" stroke="black" d="M966.35,-521C966.35,-521 831.95,-521 831.95,-521 825.95,-521 819.95,-515 819.95,-509 819.95,-509 819.95,-479 819.95,-479 819.95,-473 825.95,-467 831.95,-467 831.95,-467 966.35,-467 966.35,-467 972.35,-467 978.35,-473 978.35,-479 978.35,-479 978.35,-509 978.35,-509 978.35,-515 972.35,-521 966.35,-521"/>
<text xml:space="preserve" text-anchor="middle" x="899.15" y="-497.05" font-family="Arial Bold" font-size="11.00">announcement</text>
<text xml:space="preserve" text-anchor="middle" x="899.15" y="-483.55" font-family="Arial Bold" font-size="11.00">recipients</text>
</g>
<!-- users&#45;&gt;announcement_recipients -->
<g id="edge28" class="edge">
<title>users&#45;&gt;announcement_recipients</title>
<path fill="none" stroke="#ff6f00" stroke-width="1.3" stroke-dasharray="5,2" d="M358.35,-1125.52C358.35,-1000.8 358.35,-494 358.35,-494 358.35,-494 810.68,-494 810.68,-494"/>
<polygon fill="#ff6f00" stroke="#ff6f00" stroke-width="1.3" points="810.68,-496.45 817.68,-494 810.68,-491.55 810.68,-496.45"/>
</g>
<!-- announcement_reads -->
<g id="node14" class="node">
<title>announcement_reads</title>
<path fill="#b3e5fc" stroke="black" d="M966.35,-745C966.35,-745 831.95,-745 831.95,-745 825.95,-745 819.95,-739 819.95,-733 819.95,-733 819.95,-703 819.95,-703 819.95,-697 825.95,-691 831.95,-691 831.95,-691 966.35,-691 966.35,-691 972.35,-691 978.35,-697 978.35,-703 978.35,-703 978.35,-733 978.35,-733 978.35,-739 972.35,-745 966.35,-745"/>
<text xml:space="preserve" text-anchor="middle" x="899.15" y="-721.05" font-family="Arial Bold" font-size="11.00">announcement</text>
<text xml:space="preserve" text-anchor="middle" x="899.15" y="-707.55" font-family="Arial Bold" font-size="11.00">reads</text>
</g>
<!-- users&#45;&gt;announcement_reads -->
<g id="edge30" class="edge">
<title>users&#45;&gt;announcement_reads</title>
<path fill="none" stroke="#0288d1" stroke-width="1.3" d="M397.35,-1125.74C397.35,-1038.84 397.35,-774 397.35,-774 397.35,-774 899.35,-774 899.35,-774 899.35,-774 899.35,-754.31 899.35,-754.31"/>
<polygon fill="#0288d1" stroke="#0288d1" stroke-width="1.3" points="901.8,-754.31 899.35,-747.31 896.9,-754.31 901.8,-754.31"/>
</g>
<!-- announcement_histories -->
<g id="node15" class="node">
<title>announcement_histories</title>
<path fill="#b3e5fc" stroke="black" d="M966.35,-857C966.35,-857 831.95,-857 831.95,-857 825.95,-857 819.95,-851 819.95,-845 819.95,-845 819.95,-815 819.95,-815 819.95,-809 825.95,-803 831.95,-803 831.95,-803 966.35,-803 966.35,-803 972.35,-803 978.35,-809 978.35,-815 978.35,-815 978.35,-845 978.35,-845 978.35,-851 972.35,-857 966.35,-857"/>
<text xml:space="preserve" text-anchor="middle" x="899.15" y="-833.05" font-family="Arial Bold" font-size="11.00">announcement</text>
<text xml:space="preserve" text-anchor="middle" x="899.15" y="-819.55" font-family="Arial Bold" font-size="11.00">histories</text>
</g>
<!-- users&#45;&gt;announcement_histories -->
<g id="edge31" class="edge">
<title>users&#45;&gt;announcement_histories</title>
<path fill="none" stroke="#0288d1" stroke-width="1.3" d="M417.35,-1125.68C417.35,-1049.29 417.35,-839 417.35,-839 417.35,-839 810.62,-839 810.62,-839"/>
<polygon fill="#0288d1" stroke="#0288d1" stroke-width="1.3" points="810.62,-841.45 817.62,-839 810.62,-836.55 810.62,-841.45"/>
</g>
<!-- reports -->
<g id="node17" class="node">
<title>reports</title>
<path fill="#ba68c8" stroke="black" d="M720.95,-420C720.95,-420 586.55,-420 586.55,-420 580.55,-420 574.55,-414 574.55,-408 574.55,-408 574.55,-378 574.55,-378 574.55,-372 580.55,-366 586.55,-366 586.55,-366 720.95,-366 720.95,-366 726.95,-366 732.95,-372 732.95,-378 732.95,-378 732.95,-408 732.95,-408 732.95,-414 726.95,-420 720.95,-420"/>
<text xml:space="preserve" text-anchor="middle" x="653.75" y="-389.3" font-family="Arial Bold" font-size="11.00">reports</text>
</g>
<!-- users&#45;&gt;reports -->
<g id="edge10" class="edge">
<title>users&#45;&gt;reports</title>
<path fill="none" stroke="#7b1fa2" stroke-width="2" d="M457.3,-1159.75C494.75,-1159.75 531.35,-1159.75 531.35,-1159.75 531.35,-1159.75 531.35,-393 531.35,-393 531.35,-393 564.13,-393 564.13,-393"/>
<polygon fill="#7b1fa2" stroke="#7b1fa2" stroke-width="2" points="564.13,-395.45 571.13,-393 564.13,-390.55 564.13,-395.45"/>
</g>
<!-- cases -->
<g id="node18" class="node">
<title>cases</title>
<path fill="#ba68c8" stroke="black" d="M720.95,-308C720.95,-308 586.55,-308 586.55,-308 580.55,-308 574.55,-302 574.55,-296 574.55,-296 574.55,-266 574.55,-266 574.55,-260 580.55,-254 586.55,-254 586.55,-254 720.95,-254 720.95,-254 726.95,-254 732.95,-260 732.95,-266 732.95,-266 732.95,-296 732.95,-296 732.95,-302 726.95,-308 720.95,-308"/>
<text xml:space="preserve" text-anchor="middle" x="653.75" y="-277.3" font-family="Arial Bold" font-size="11.00">cases</text>
</g>
<!-- users&#45;&gt;cases -->
<g id="edge11" class="edge">
<title>users&#45;&gt;cases</title>
<path fill="none" stroke="#7b1fa2" stroke-width="2" d="M457.22,-1153C485.44,-1153 510.35,-1153 510.35,-1153 510.35,-1153 510.35,-299 510.35,-299 510.35,-299 564.06,-299 564.06,-299"/>
<polygon fill="#7b1fa2" stroke="#7b1fa2" stroke-width="2" points="564.06,-301.45 571.06,-299 564.06,-296.55 564.06,-301.45"/>
<text xml:space="preserve" text-anchor="middle" x="515.8" y="-552.15" font-family="Arial" font-size="8.00">assigned</text>
</g>
<!-- case_documents -->
<g id="node19" class="node">
<title>case_documents</title>
<path fill="#e1bee7" stroke="black" d="M966.35,-196C966.35,-196 831.95,-196 831.95,-196 825.95,-196 819.95,-190 819.95,-184 819.95,-184 819.95,-154 819.95,-154 819.95,-148 825.95,-142 831.95,-142 831.95,-142 966.35,-142 966.35,-142 972.35,-142 978.35,-148 978.35,-154 978.35,-154 978.35,-184 978.35,-184 978.35,-190 972.35,-196 966.35,-196"/>
<text xml:space="preserve" text-anchor="middle" x="899.15" y="-172.05" font-family="Arial Bold" font-size="11.00">case</text>
<text xml:space="preserve" text-anchor="middle" x="899.15" y="-158.55" font-family="Arial Bold" font-size="11.00">documents</text>
</g>
<!-- users&#45;&gt;case_documents -->
<g id="edge32" class="edge">
<title>users&#45;&gt;case_documents</title>
<path fill="none" stroke="#7b1fa2" stroke-width="1.3" d="M457.54,-1146.25C480.44,-1146.25 499.35,-1146.25 499.35,-1146.25 499.35,-1146.25 499.35,-225 499.35,-225 499.35,-225 899.35,-225 899.35,-225 899.35,-225 899.35,-205.31 899.35,-205.31"/>
<polygon fill="#7b1fa2" stroke="#7b1fa2" stroke-width="1.3" points="901.8,-205.31 899.35,-198.31 896.9,-205.31 901.8,-205.31"/>
</g>
<!-- case_histories -->
<g id="node20" class="node">
<title>case_histories</title>
<path fill="#e1bee7" stroke="black" d="M966.35,-308C966.35,-308 831.95,-308 831.95,-308 825.95,-308 819.95,-302 819.95,-296 819.95,-296 819.95,-266 819.95,-266 819.95,-260 825.95,-254 831.95,-254 831.95,-254 966.35,-254 966.35,-254 972.35,-254 978.35,-260 978.35,-266 978.35,-266 978.35,-296 978.35,-296 978.35,-302 972.35,-308 966.35,-308"/>
<text xml:space="preserve" text-anchor="middle" x="899.15" y="-284.05" font-family="Arial Bold" font-size="11.00">case</text>
<text xml:space="preserve" text-anchor="middle" x="899.15" y="-270.55" font-family="Arial Bold" font-size="11.00">histories</text>
</g>
<!-- users&#45;&gt;case_histories -->
<g id="edge33" class="edge">
<title>users&#45;&gt;case_histories</title>
<path fill="none" stroke="#7b1fa2" stroke-width="1.3" d="M338.35,-1125.62C338.35,-995.23 338.35,-443.5 338.35,-443.5 338.35,-443.5 899.35,-443.5 899.35,-443.5 899.35,-443.5 899.35,-317.17 899.35,-317.17"/>
<polygon fill="#7b1fa2" stroke="#7b1fa2" stroke-width="1.3" points="901.8,-317.17 899.35,-310.17 896.9,-317.17 901.8,-317.17"/>
</g>
<!-- file_libraries -->
<g id="node21" class="node">
<title>file_libraries</title>
<path fill="#ba68c8" stroke="black" d="M720.95,-196C720.95,-196 586.55,-196 586.55,-196 580.55,-196 574.55,-190 574.55,-184 574.55,-184 574.55,-154 574.55,-154 574.55,-148 580.55,-142 586.55,-142 586.55,-142 720.95,-142 720.95,-142 726.95,-142 732.95,-148 732.95,-154 732.95,-154 732.95,-184 732.95,-184 732.95,-190 726.95,-196 720.95,-196"/>
<text xml:space="preserve" text-anchor="middle" x="653.75" y="-165.3" font-family="Arial Bold" font-size="11.00">file_libraries</text>
</g>
<!-- users&#45;&gt;file_libraries -->
<g id="edge12" class="edge">
<title>users&#45;&gt;file_libraries</title>
<path fill="none" stroke="#7b1fa2" stroke-width="2" d="M457.4,-1139.5C475.42,-1139.5 489.35,-1139.5 489.35,-1139.5 489.35,-1139.5 489.35,-189 489.35,-189 489.35,-189 564.41,-189 564.41,-189"/>
<polygon fill="#7b1fa2" stroke="#7b1fa2" stroke-width="2" points="564.41,-191.45 571.41,-189 564.41,-186.55 564.41,-191.45"/>
</g>
<!-- users&#45;&gt;file_library_permissions -->
<g id="edge34" class="edge">
<title>users&#45;&gt;file_library_permissions</title>
<path fill="none" stroke="#ff6f00" stroke-width="1.3" stroke-dasharray="5,2" d="M457.43,-1132.75C463.51,-1132.75 467.35,-1132.75 467.35,-1132.75 467.35,-1132.75 467.35,-25.33 467.35,-25.33 467.35,-25.33 810.73,-25.33 810.73,-25.33"/>
<polygon fill="#ff6f00" stroke="#ff6f00" stroke-width="1.3" points="810.73,-27.78 817.73,-25.33 810.73,-22.88 810.73,-27.78"/>
</g>
<!-- faq_ratings -->
<g id="node27" class="node">
<title>faq_ratings</title>
<path fill="#e1bee7" stroke="black" d="M445.05,-420C445.05,-420 310.65,-420 310.65,-420 304.65,-420 298.65,-414 298.65,-408 298.65,-408 298.65,-378 298.65,-378 298.65,-372 304.65,-366 310.65,-366 310.65,-366 445.05,-366 445.05,-366 451.05,-366 457.05,-372 457.05,-378 457.05,-378 457.05,-408 457.05,-408 457.05,-414 451.05,-420 445.05,-420"/>
<text xml:space="preserve" text-anchor="middle" x="377.85" y="-389.3" font-family="Arial Bold" font-size="11.00">faq_ratings</text>
</g>
<!-- users&#45;&gt;faq_ratings -->
<g id="edge36" class="edge">
<title>users&#45;&gt;faq_ratings</title>
<path fill="none" stroke="#7b1fa2" stroke-width="1.3" d="M318.35,-1125.5C318.35,-1125.5 318.35,-429.43 318.35,-429.43"/>
<polygon fill="#7b1fa2" stroke="#7b1fa2" stroke-width="1.3" points="320.8,-429.43 318.35,-422.43 315.9,-429.43 320.8,-429.43"/>
</g>
<!-- messages&#45;&gt;messages -->
<g id="edge17" class="edge">
<title>messages&#45;&gt;messages</title>
<path fill="none" stroke="#7b1fa2" stroke-width="1.3" stroke-dasharray="5,2" d="M574.26,-886C568.18,-886 564.35,-886 564.35,-886 564.35,-886 564.35,-862.5 564.35,-862.5 564.35,-862.5 798.35,-862.5 798.35,-862.5 798.35,-862.5 798.35,-891.5 798.35,-891.5 798.35,-891.5 742.21,-891.5 742.21,-891.5"/>
<polygon fill="#7b1fa2" stroke="#7b1fa2" stroke-width="1.3" points="742.21,-889.05 735.21,-891.5 742.21,-893.95 742.21,-889.05"/>
</g>
<!-- message_attachments -->
<g id="node10" class="node">
<title>message_attachments</title>
<path fill="#b3e5fc" stroke="black" d="M966.35,-969C966.35,-969 831.95,-969 831.95,-969 825.95,-969 819.95,-963 819.95,-957 819.95,-957 819.95,-927 819.95,-927 819.95,-921 825.95,-915 831.95,-915 831.95,-915 966.35,-915 966.35,-915 972.35,-915 978.35,-921 978.35,-927 978.35,-927 978.35,-957 978.35,-957 978.35,-963 972.35,-969 966.35,-969"/>
<text xml:space="preserve" text-anchor="middle" x="899.15" y="-945.05" font-family="Arial Bold" font-size="11.00">message</text>
<text xml:space="preserve" text-anchor="middle" x="899.15" y="-931.55" font-family="Arial Bold" font-size="11.00">attachments</text>
</g>
<!-- messages&#45;&gt;message_attachments -->
<g id="edge16" class="edge">
<title>messages&#45;&gt;message_attachments</title>
<path fill="none" stroke="#0288d1" stroke-width="1.3" d="M733.42,-918.5C733.42,-918.5 810.49,-918.5 810.49,-918.5"/>
<polygon fill="#0288d1" stroke="#0288d1" stroke-width="1.3" points="810.49,-920.95 817.49,-918.5 810.49,-916.05 810.49,-920.95"/>
</g>
<!-- announcements&#45;&gt;announcement_recipients -->
<g id="edge18" class="edge">
<title>announcements&#45;&gt;announcement_recipients</title>
<path fill="none" stroke="#0288d1" stroke-width="1.3" d="M627.35,-690.91C627.35,-634.06 627.35,-507.5 627.35,-507.5 627.35,-507.5 810.84,-507.5 810.84,-507.5"/>
<polygon fill="#0288d1" stroke="#0288d1" stroke-width="1.3" points="810.84,-509.95 817.84,-507.5 810.84,-505.05 810.84,-509.95"/>
</g>
<!-- announcement_attachments -->
<g id="node13" class="node">
<title>announcement_attachments</title>
<path fill="#b3e5fc" stroke="black" d="M966.35,-633C966.35,-633 831.95,-633 831.95,-633 825.95,-633 819.95,-627 819.95,-621 819.95,-621 819.95,-591 819.95,-591 819.95,-585 825.95,-579 831.95,-579 831.95,-579 966.35,-579 966.35,-579 972.35,-579 978.35,-585 978.35,-591 978.35,-591 978.35,-621 978.35,-621 978.35,-627 972.35,-633 966.35,-633"/>
<text xml:space="preserve" text-anchor="middle" x="899.15" y="-609.05" font-family="Arial Bold" font-size="11.00">announcement</text>
<text xml:space="preserve" text-anchor="middle" x="899.15" y="-595.55" font-family="Arial Bold" font-size="11.00">attachments</text>
</g>
<!-- announcements&#45;&gt;announcement_attachments -->
<g id="edge19" class="edge">
<title>announcements&#45;&gt;announcement_attachments</title>
<path fill="none" stroke="#0288d1" stroke-width="1.3" d="M680.35,-690.6C680.35,-657.44 680.35,-606 680.35,-606 680.35,-606 810.57,-606 810.57,-606"/>
<polygon fill="#0288d1" stroke="#0288d1" stroke-width="1.3" points="810.57,-608.45 817.57,-606 810.57,-603.55 810.57,-608.45"/>
</g>
<!-- announcements&#45;&gt;announcement_reads -->
<g id="edge20" class="edge">
<title>announcements&#45;&gt;announcement_reads</title>
<path fill="none" stroke="#0288d1" stroke-width="1.3" d="M733.42,-718C733.42,-718 810.49,-718 810.49,-718"/>
<polygon fill="#0288d1" stroke="#0288d1" stroke-width="1.3" points="810.49,-720.45 817.49,-718 810.49,-715.55 810.49,-720.45"/>
</g>
<!-- announcements&#45;&gt;announcement_histories -->
<g id="edge21" class="edge">
<title>announcements&#45;&gt;announcement_histories</title>
<path fill="none" stroke="#0288d1" stroke-width="1.3" d="M653.35,-745.33C653.35,-775.85 653.35,-821 653.35,-821 653.35,-821 810.72,-821 810.72,-821"/>
<polygon fill="#0288d1" stroke="#0288d1" stroke-width="1.3" points="810.72,-823.45 817.72,-821 810.72,-818.55 810.72,-823.45"/>
</g>
<!-- entities -->
<g id="node16" class="node">
<title>entities</title>
<path fill="#ce93d8" stroke="black" d="M162.4,-308C162.4,-308 28,-308 28,-308 22,-308 16,-302 16,-296 16,-296 16,-266 16,-266 16,-260 22,-254 28,-254 28,-254 162.4,-254 162.4,-254 168.4,-254 174.4,-260 174.4,-266 174.4,-266 174.4,-296 174.4,-296 174.4,-302 168.4,-308 162.4,-308"/>
<text xml:space="preserve" text-anchor="middle" x="95.2" y="-277.3" font-family="Arial Bold" font-size="11.00">entities</text>
</g>
<!-- entities&#45;&gt;users -->
<g id="edge4" class="edge">
<title>entities&#45;&gt;users</title>
<path fill="none" stroke="#ff6f00" stroke-width="1.3" stroke-dasharray="5,2" d="M174.85,-263C206.87,-263 236.35,-263 236.35,-263 236.35,-263 236.35,-1141.5 236.35,-1141.5 236.35,-1141.5 289.45,-1141.5 289.45,-1141.5"/>
<polygon fill="#ff6f00" stroke="#ff6f00" stroke-width="1.3" points="289.45,-1143.95 296.45,-1141.5 289.45,-1139.05 289.45,-1143.95"/>
<text xml:space="preserve" text-anchor="middle" x="236.53" y="-786.15" font-family="Arial" font-size="8.00">represents</text>
</g>
<!-- entities&#45;&gt;announcement_recipients -->
<g id="edge29" class="edge">
<title>entities&#45;&gt;announcement_recipients</title>
<path fill="none" stroke="#ff6f00" stroke-width="1.3" stroke-dasharray="5,2" d="M174.86,-290C298.2,-290 521.35,-290 521.35,-290 521.35,-290 521.35,-480.5 521.35,-480.5 521.35,-480.5 810.52,-480.5 810.52,-480.5"/>
<polygon fill="#ff6f00" stroke="#ff6f00" stroke-width="1.3" points="810.52,-482.95 817.52,-480.5 810.52,-478.05 810.52,-482.95"/>
</g>
<!-- entities&#45;&gt;cases -->
<g id="edge15" class="edge">
<title>entities&#45;&gt;cases</title>
<path fill="none" stroke="#7b1fa2" stroke-width="2" d="M174.63,-281C174.63,-281 564.11,-281 564.11,-281"/>
<polygon fill="#7b1fa2" stroke="#7b1fa2" stroke-width="2" points="564.11,-283.45 571.11,-281 564.11,-278.55 564.11,-283.45"/>
<text xml:space="preserve" text-anchor="middle" x="377.85" y="-300.15" font-family="Arial" font-size="8.00">entity</text>
</g>
<!-- contacts -->
<g id="node23" class="node">
<title>contacts</title>
<path fill="#ba68c8" stroke="black" d="M445.05,-182C445.05,-182 310.65,-182 310.65,-182 304.65,-182 298.65,-176 298.65,-170 298.65,-170 298.65,-140 298.65,-140 298.65,-134 304.65,-128 310.65,-128 310.65,-128 445.05,-128 445.05,-128 451.05,-128 457.05,-134 457.05,-140 457.05,-140 457.05,-170 457.05,-170 457.05,-176 451.05,-182 445.05,-182"/>
<text xml:space="preserve" text-anchor="middle" x="377.85" y="-151.3" font-family="Arial Bold" font-size="11.00">contacts</text>
</g>
<!-- entities&#45;&gt;contacts -->
<g id="edge14" class="edge">
<title>entities&#45;&gt;contacts</title>
<path fill="none" stroke="#7b1fa2" stroke-width="2" d="M174.55,-272C258,-272 377.35,-272 377.35,-272 377.35,-272 377.35,-192.46 377.35,-192.46"/>
<polygon fill="#7b1fa2" stroke="#7b1fa2" stroke-width="2" points="379.8,-192.46 377.35,-185.46 374.9,-192.46 379.8,-192.46"/>
</g>
<!-- cases&#45;&gt;case_documents -->
<g id="edge22" class="edge">
<title>cases&#45;&gt;case_documents</title>
<path fill="none" stroke="#7b1fa2" stroke-width="1.3" d="M733.13,-272C756.7,-272 776.35,-272 776.35,-272 776.35,-272 776.35,-178 776.35,-178 776.35,-178 810.68,-178 810.68,-178"/>
<polygon fill="#7b1fa2" stroke="#7b1fa2" stroke-width="1.3" points="810.68,-180.45 817.68,-178 810.68,-175.55 810.68,-180.45"/>
</g>
<!-- cases&#45;&gt;case_histories -->
<g id="edge23" class="edge">
<title>cases&#45;&gt;case_histories</title>
<path fill="none" stroke="#7b1fa2" stroke-width="1.3" d="M733.42,-290C733.42,-290 810.49,-290 810.49,-290"/>
<polygon fill="#7b1fa2" stroke="#7b1fa2" stroke-width="1.3" points="810.49,-292.45 817.49,-290 810.49,-287.55 810.49,-292.45"/>
</g>
<!-- file_libraries&#45;&gt;file_library_permissions -->
<g id="edge24" class="edge">
<title>file_libraries&#45;&gt;file_library_permissions</title>
<path fill="none" stroke="#7b1fa2" stroke-width="1.3" d="M733.02,-160C745.48,-160 754.35,-160 754.35,-160 754.35,-160 754.35,-53.5 754.35,-53.5 754.35,-53.5 810.58,-53.5 810.58,-53.5"/>
<polygon fill="#7b1fa2" stroke="#7b1fa2" stroke-width="1.3" points="810.58,-55.95 817.58,-53.5 810.58,-51.05 810.58,-55.95"/>
</g>
<!-- contact_group_members -->
<g id="node25" class="node">
<title>contact_group_members</title>
<path fill="#e1bee7" stroke="black" d="M720.95,-84C720.95,-84 586.55,-84 586.55,-84 580.55,-84 574.55,-78 574.55,-72 574.55,-72 574.55,-42 574.55,-42 574.55,-36 580.55,-30 586.55,-30 586.55,-30 720.95,-30 720.95,-30 726.95,-30 732.95,-36 732.95,-42 732.95,-42 732.95,-72 732.95,-72 732.95,-78 726.95,-84 720.95,-84"/>
<text xml:space="preserve" text-anchor="middle" x="653.75" y="-60.05" font-family="Arial Bold" font-size="11.00">contact_group</text>
<text xml:space="preserve" text-anchor="middle" x="653.75" y="-46.55" font-family="Arial Bold" font-size="11.00">members</text>
</g>
<!-- contacts&#45;&gt;contact_group_members -->
<g id="edge25" class="edge">
<title>contacts&#45;&gt;contact_group_members</title>
<path fill="none" stroke="#7b1fa2" stroke-width="1.3" d="M377.35,-127.72C377.35,-105.23 377.35,-77 377.35,-77 377.35,-77 565.21,-77 565.21,-77"/>
<polygon fill="#7b1fa2" stroke="#7b1fa2" stroke-width="1.3" points="565.21,-79.45 572.21,-77 565.21,-74.55 565.21,-79.45"/>
</g>
<!-- contact_groups -->
<g id="node24" class="node">
<title>contact_groups</title>
<path fill="#e1bee7" stroke="black" d="M445.05,-70C445.05,-70 310.65,-70 310.65,-70 304.65,-70 298.65,-64 298.65,-58 298.65,-58 298.65,-28 298.65,-28 298.65,-22 304.65,-16 310.65,-16 310.65,-16 445.05,-16 445.05,-16 451.05,-16 457.05,-22 457.05,-28 457.05,-28 457.05,-58 457.05,-58 457.05,-64 451.05,-70 445.05,-70"/>
<text xml:space="preserve" text-anchor="middle" x="377.85" y="-46.05" font-family="Arial Bold" font-size="11.00">contact</text>
<text xml:space="preserve" text-anchor="middle" x="377.85" y="-32.55" font-family="Arial Bold" font-size="11.00">groups</text>
</g>
<!-- contact_groups&#45;&gt;contact_group_members -->
<g id="edge26" class="edge">
<title>contact_groups&#45;&gt;contact_group_members</title>
<path fill="none" stroke="#7b1fa2" stroke-width="1.3" d="M457.28,-50C457.28,-50 565.43,-50 565.43,-50"/>
<polygon fill="#7b1fa2" stroke="#7b1fa2" stroke-width="1.3" points="565.43,-52.45 572.43,-50 565.43,-47.55 565.43,-52.45"/>
</g>
<!-- faq_questions -->
<g id="node26" class="node">
<title>faq_questions</title>
<path fill="#ba68c8" stroke="black" d="M162.4,-420C162.4,-420 28,-420 28,-420 22,-420 16,-414 16,-408 16,-408 16,-378 16,-378 16,-372 22,-366 28,-366 28,-366 162.4,-366 162.4,-366 168.4,-366 174.4,-372 174.4,-378 174.4,-378 174.4,-408 174.4,-408 174.4,-414 168.4,-420 162.4,-420"/>
<text xml:space="preserve" text-anchor="middle" x="95.2" y="-389.3" font-family="Arial Bold" font-size="11.00">faq_questions</text>
</g>
<!-- faq_questions&#45;&gt;faq_ratings -->
<g id="edge27" class="edge">
<title>faq_questions&#45;&gt;faq_ratings</title>
<path fill="none" stroke="#7b1fa2" stroke-width="1.3" d="M174.69,-393C174.69,-393 289.5,-393 289.5,-393"/>
<polygon fill="#7b1fa2" stroke="#7b1fa2" stroke-width="1.3" points="289.5,-395.45 296.5,-393 289.5,-390.55 289.5,-395.45"/>
</g>
</g>
</svg>
